<?xml version="1.0" encoding="UTF-8"?>
<svg xmlns="http://www.w3.org/2000/svg" version="1.1" viewBox="0 0 512 512">
  <defs>
    <style>
      .cls-1 {
        stroke-width: 2.3px;
      }

      .cls-1, .cls-2, .cls-3 {
        fill: none;
      }

      .cls-1, .cls-2, .cls-3, .cls-4 {
        stroke: #0b0b0b;
        stroke-linecap: round;
        stroke-linejoin: round;
      }

      .cls-5, .cls-6, .cls-7, .cls-8 {
        stroke-width: 0px;
      }

      .cls-5, .cls-4 {
        fill: #0b0b0b;
      }

      .cls-9 {
        stroke-width: 7.1px;
      }

      .cls-9, .cls-10, .cls-7, .cls-11, .cls-12, .cls-13 {
        fill: #1a1a1a;
      }

      .cls-9, .cls-10, .cls-11, .cls-12, .cls-13 {
        stroke: #1a1a1a;
        stroke-miterlimit: 10;
      }

      .cls-6 {
        fill: #1b1b1b;
      }

      .cls-10 {
        stroke-width: 8.8px;
      }

      .cls-11 {
        stroke-width: 4.2px;
      }

      .cls-11, .cls-2, .cls-14, .cls-13 {
        display: none;
      }

      .cls-2 {
        stroke-width: 1px;
      }

      .cls-15 {
        fill: #fcfcfc;
        font-family: LavaKannada-Regular, 'Lava Kannada';
        font-size: 70.6px;
      }

      .cls-15, .cls-14 {
        isolation: isolate;
      }

      .cls-3 {
        stroke-width: 7.5px;
      }

      .cls-12 {
        stroke-width: 7.4px;
      }

      .cls-8 {
        fill: #fff;
      }

      .cls-13 {
        stroke-width: 4.4px;
      }

      .cls-4 {
        stroke-width: 10.4px;
      }
    </style>
  </defs>
  <g id="Layer_6" data-name="Layer 6">
    <path class="cls-8" d="M1167.3,654.4l-11.5,69.3c-4.3,6.7-8.9,13.3-13.7,19.6-41,1.8-82,3.2-123.1,3.4-9.3,0-18.7,0-28,0l-222.3-37c-2.7-.8-5.3-1.5-7.9-2.3-20-6.3-40-13.5-58.1-24.2-6-4.1-11.8-8.6-17-13.7-2.8-3.4-5.4-7-7.7-10.8-2.2-4.7-4-9.6-5.5-14.6-1.7-9-2.4-18.2-2.4-27.4,1.6-29.8,9.1-58.9,15.2-88,8.8-41.9,13.5-84.7,21.2-126.8,4.4-24,9.6-47.8,16.3-71.3,6.2-18.3,13.4-36.5,22.7-53.4,3.3-2.3,6.6-4.5,10.1-6.6,13.7-6.7,28.2-11.5,42-18.1,8.7-4.1,17.9-8.5,25.5-14.5,8.6-6.9,14.7-14.2,20.4-23.1,4-.6,7.8-1.8,11.3-3.6,3.4.8,6.9,1,10.4.5,4.3-.7,9.1-2,13.3-4.2,12.4.8,24.7,3.1,37,5.8,1.5.5,3,.8,4.5,1.1s.5,0,.7,0c8.1,1.9,16.2,3.9,24.2,5.8,29.2,6.9,58.7,11.6,88.2,16.7,20.5,3.5,41,7.5,61,13.4,12.8,4.2,25.3,9.3,37.3,15.4,3.2,2.8,6.3,5.7,9.2,8.8,6,6.8,11.4,14,16.1,21.8,2.3,4.8,4.1,9.8,5.6,14.9,3.9,20.6,2.3,41.6,4.5,62.4,2.5,23.2,9,45.6,9.3,69-1,14-4,27.6-5.9,41.4-.4,2.1-.8,4.2-1.2,6.3-2.2,11.7-4.4,23.4-5.8,35.2,0,0-.1.2-.2.3-3.7,6.6-5.7,14.2-8,21.4-2.7,8.8-5.1,17.7-7,26.7-1.8,9.2-2.8,18.4-2.7,27.7.2,12.4,5.8,25.1,13.8,34.4,1.7,2,3.5,4.1,5.3,6.1.8,4.1,1.6,8.2,2.6,12.3Z"/>
    <path class="cls-5" d="M929-102c-43.8,5.7-91.4-3.7-132.9-7.9-14.1-.9-28.7,1.4-42.1-1.1-1.8-.6,1.6-10,3.4-9.4h0l-1.1-2.1c57.9-4.8,115.5-4.3,167.3,6.8l-2.1,4.7c-37.2-4.7-80.2-7.6-118.1-10.7-11.5-1.9-22.9-1.9-35.8-.7-1.8-.6-2.7-.9-3.8-3-1.1-2.1-1.2-11.8,2.2-12.5,24.1-3.1,55.7,7.7,79.3,8,25.6,2.8,52.8.6,77.7,5,0,0,1.4.5,0,3.6l-1.4,3.1c-26.8,2.2-52.4-.6-78.7-1.8-22.9-1.9-57.4,1.4-77.3-4.9l2.8-6.3c1.4-3.1,4.1-2.3,5.9-1.7,10.9,3.4,20.8,6.6,33,6.9l39,5.2c26.5,3.1,52.1,5.8,78.6,8.9"/>
    <path class="cls-5" d="M724.8-69.3c15.4-20.8,42.9-31,55.9-57.9,14.3-15.2,35.3-98.5,92.4-70.9,16,12,14.8,17.6,20.1,27.9,15,52.1,29.8,75.1,29.8,127.1-.8,3.7-30,6.2-32.8,1.9-5.3-27.7-12.5-37.3-21-67.3-6.9-20.2-13.1-61.5-20.4-79.8l14.4,2.1c-21,12.3-39.2,46.1-50.2,63.6-16.6,26.4-31,52.4-31,52.4,5.2-5.1-10,15-15,21l-25-8s-18.8-4.8-17.2-12.3Z"/>
  </g>
  <g id="Layer_1" data-name="Layer 1">
    <g id="_1-black-bottle1" data-name=" 1-black-bottle1">
      <path class="cls-4" d="M979-353.7s-5.7,18.6-43.4,22.3c-11.4,1.1-25.8.8-43.9-1.9-28.1-4.1-46.5-11.2-58.4-18.6-21.2-12.9-22.1-26.7-22.1-26.7,0,0,8.1-29.2,85-22,76.9,7.2,82.8,47.3,82.8,47.3h0v-.3Z"/>
      <g>
        <path class="cls-5" d="M894.7-306.9c-7.2-1.2-16.5-2.7-31.7-6.1l-1.2-.2c-39-7.8-54.3-27.8-56.4-30.8l6-28.5c2.3,5.5,8,13.7,21,21.7,13.4,8.1,31.6,14.4,54.3,18.1,22.7,3.8,3.1.5,4.7.8,16.8,2.8,31.8,3.1,44.5,2,25.7-2.4,36.8-11.6,41.7-17.5l-.3,30.8c-3.9,2-23.8,12.4-47.2,12.2l-2.2-.4c-15.1.2-20.5,0-32.7-1.9h-.6c0-.1,0-.4,0-.4Z"/>
        <path class="cls-5" d="M975.7-343.5l-.4,21.4v4.5c-5,2.7-23.9,11.9-45.9,11.7l-2.2-.4c-14.8.2-20.5,0-32.3-1.9-11.8-2-16.5-2.7-31.7-6.1l-1.2-.2c-21.7-4.4-35.4-12.3-43.4-18.5-6.8-5.2-10.3-9.5-11.6-11.3l2.6-11.6,2.7-12.4c3.3,5.4,8.9,11.9,19.4,18.2,13.6,8.4,32.2,14.5,54.9,18.2,22.7,3.8,3.1.5,4.7.8,16.8,2.8,32.1,3.2,44.8,2.1,21.8-2,33.5-8.9,39.6-14.8v.3ZM979-353.7s-5.7,18.6-43.4,22.3c-11.4,1.1-25.8.8-43.9-1.9l-4.7-.8c-25.6-4.2-42.4-10.8-53.7-17.8-21.2-12.9-22.1-26.7-22.1-26.7l-4.7,22.3-2.7,12.7s14.4,23.3,57.8,31.8c15.8,3.2,25.7,5.1,33.2,6.3,12.8,2.1,18.2,2,35.2,2.4,26.6.1,48.6-12.8,48.6-12.8v-5.9s.5-31.5.5-31.5h0v-.3Z"/>
      </g>
      <path class="cls-3" d="M980.9-301.7s-8.4,9.9-35.6,13.6c-27.2,3.8-65.7-5.3-101-12.5-35.3-7.2-47-27.4-47-27.4l5.8-15.6s14.4,23.3,57.8,31.8c43.4,8.6,41.9,8.3,68.4,8.7,26.5.4,48.6-12.8,48.6-12.8l2.7,14.4h0l.4-.2Z"/>
      <path class="cls-3" d="M980.9-301.7s-8.4,9.9-35.6,13.6c-27.2,3.8-65.7-5.3-101-12.5-35.3-7.2-47-27.4-47-27.4l5.8-15.6s14.4,23.3,57.8,31.8c43.4,8.6,41.9,8.3,68.4,8.7,26.5.4,48.6-12.8,48.6-12.8l2.7,14.4h0l.4-.2Z"/>
      <path class="cls-12" d="M1011.2-250.1c-10.4,7.1-25,15.6-35.9,22.1,0,0,0,0,0,0-12.5,3.8-30,6.7-43.3,6.3-39-2.5-125.4-26.5-136.1-30.9,0,0-15.5-6.7-15.6-6.7-11.5-5.7-17.8-12.2-29.4-17.4-5.7-2.5-14.5-5.2-19.6-9.5-19.4-16.1-16.7-35.9-1.5-44.9,0,0,0,0,0,0,.6-.3,10.1-5,10.8-5.4s0,0,0,0c12.7-9.1,30.5-16.7,42-26.1s.1,0,.2-.1c2.9-1.3,9.5-.1,13.2.5s.6.1,2.2.4l-2.2-.4,10.1,2.2s0,0,0,0l2.4.4c1.8.3,2.4,2.1,2,3.6s-.1.3-.2.5c-2.8,4-4.7,8.1-5.5,12.7,0,0,0,.1,0,.2-1.8,5.3-3.3,10.6-2.7,16.6l-.4-3.3c10.7,14.4,29.6,22.3,48.4,26.8,11.7,3,24.5,6.8,36.4,8.5,28.4,4.7,64,2.6,89.2-6.8,2.8-.9-2.5-14.1-2.5-14.1v-.8c.1,0-.8-6-.8-6-.2-2.5,1.7-4.5,4.6-4.6,11.7.6,26.9,1.9,37.8,5.5l10.5,3.8s0,0,0,0c22.8,10,22.4,29,14,42.8h0s-17.7,16.8-28.5,24.4ZM1025.6-281.6c13.1-23-2.5-27.2-26.9-31-5.9-1-12-2-17.8-3.6s-1.9-2.3-.5-3.2h0c1.3-.8,3.1.3,2.9,1.8l-.2,1.2.8,14.1c0,.2,0,.3,0,.5-.5,2.7-2.7,4.9-4.6,6.7s0,0-.1.1c-24.1,19.5-60.7,15.5-90.9,8.8-16.3-3.8-36.3-9.7-52.4-12.4,0,0-.1,0-.2,0-17.2-4.2-41.4-12.5-50-26.5-.8-.9,3.2-9.8,4-10.8,3.9-4.4,8.9-8.3,9.3-8.9.5-.9,4.3-7.7,3.4-7.8,0,0-7.8-1.2-9.4-.9-6.9.7-5.4,5.6-13.8,8.8s-6.7,2.9-9.8,4.7c-6.1,3.4-12.7,7-17.9,10.9s0,0-.1,0c-4.6,2.7-9,6.2-12.5,10.2-19.5,21.1,13.9,31.8,32.6,41,5.7,2.5,11.2,5.6,16.6,8.1,7.8,3.4,19.4,3.9,27.5,7.1,2.4.9,6,2.3,8.5,3,35.5,10.2,71.1,20,108.3,21.9,10.5.4,21,.3,31.5-1.2,0,0,.1,0,.2,0,1.3-.3,2.9-.6,3.6-.7l-1,.4c10.6-6.3,21.4-13.1,31.8-19.9,9.4-6.7,20.5-13.5,26.7-22.1h.6c0,.1.1-.7.1-.7Z"/>
      <path class="cls-12" d="M1014.2,33c-2.2,1.8-5.5,4.5-7.7,6-16.4,12-30.7,25.8-52.9,30.7,0,0-4.5.3-4.5.3-3.6.5-6,1.6-9.2,1.6-9.3-.2-18.7,1-27.9.6l-35.8,1.3s-4.5.3-4.5.3c-17.9-1.9-35.7-3.6-53.5-5.8-35.8-4.1-78.1-17.2-112-29-16-5.9-47.7-10.4-38.5-29.3l4-10.8c.8-6.6-1.5-7.1-1.1-13.7,1.6-19.3-.3-41.8,1.3-61.1,2.6-33.1,4.2-67.6,10-100.2l6.1-16.6c1.8-15,4.9-28.8,8.3-43.3,5.9-26.1,14.9-49.7,21.4-75.4.2-1,7.5-1,8.6-1.6h0c1.3-.3,3-.8,4.4-1.2,2.4-.7,4.9,1.4,4.2,3.4-5.2,14.1,14.2,22.5,27.5,27.1l15.6,6.3c8.3,3.8,23.3,5.3,32.1,8.4,5.2,1.7,10.2,3.8,15.1,5.2,26.2,7.8,53,14.2,80.1,18.9,19.8,3.8,45.6,8.3,61.5,5.9.1,0,.2,0,.3-.1,14-7.6,27.5-15.7,40.4-24.5,9.4-6.7,18.5-13,21.8-23.4,1.1-3.1,2-6.3,1.6-9s0-.5.2-.7l2.7-3.5v-.8h.1l4.9,1.6c1.9.3,3.3,1.8,3.4,3.4-2.9,30.9-7.3,175.8-11.6,203.8-5.1,36.1-10.2,80.5-16.1,116.8-.4,2.7-.5,5.5-.3,8.3h0ZM996.1,23.4h0l1.4-8.6c5.1-32.9,11.5-77.1,16.1-110.1,3.8-26.5,14.2-167.2,17.4-200.2s.9-1.1,1.6-.7l6.4,4.1h0l-.8-.7.7-.9c.6-.8,2-.3,1.8.7-.5,3-1.6,5.7-2.9,8.4s0,0,0,0c-2.8,7-9,13.5-15.2,18.3-9.2,7.3-19.3,13.9-29.4,20.6-7.1,4.4-13.6,9.2-21,13.3,0,0-.2,0-.3.1-11,2.9-22.9,3.1-34.4,3.3-39.9-1-80-6.1-118.5-17.5-5.5-1.7-10.9-4-16-6.1-10.2-4.1-21.2-9.2-30.5-15.2-17.3-11.3-48.6-21-43.6-42.8s1-1,1.6-.6l2.2,1.5c.6.4.6,1.2,0,1.6s-1.5,1-2,1.4c0,0,.2.6,0,0l1.9-2.1c-6.2,25.8-12.4,51.5-18,77.6-3.1,14.5-6.5,29.2-8.3,43.9l-5.7,34.4c-5.5,32.9-8.7,65.5-11.9,98.8-2.1,18.4-4.6,41.2-8.9,59.2,0,0,0,.1,0,.2-7.4,14.7,20.3,20.7,32.2,25.9,0,0,0,0,0,0,33.6,11.7,68.7,17.9,104.1,22.7,17.5,2.6,36.6,5,53.2,7,0,0,0,0,0,0,18.1.6,38,.4,56.2.5,0,0,0,0,0,0,4.8-.3,13.4,0,17.9-.5,0,0,0,0,0,0,5.3-1,10.7-3,15.9-5.6,14.7-7.5,28.6-17.8,36.8-30.9h0l-.4-1.1Z"/>
      <path class="cls-12" d="M975.7-227.8c6.8,18.8,9.2,39.5,5.5,57.9-3,18-9.3,35-11.1,53.2-2,17.6,2.2,33.6-.7,50.8-.7,13.6-1.3,30.8-2.9,44.2-2.1,16.3-6.6,22.6-9,38.6,0,.5-.8.9-1.4.8s-1.2-.7-1.1-1.3c1.1-31.7,2.7-51.4,2.3-83.3.1-4.5-.8-9.3-1-13.8,0,0-1-7.3-1-7.3.8-12.4,2.9-17.7,4-30,1.8-18.5,4.2-36.8,7.9-55.2,4.2-17.5,7.2-35.8,4.4-53.9-.6-2,3.1-3,4-.7h0Z"/>
      <path class="cls-1" d="M811.6-332.8s-7.9,7-6.8,10.1"/>
      <path class="cls-1" d="M816.8-329.8s-7.6,5.4-7.6,11.1"/>
      <path class="cls-1" d="M823.4-325.2s-7.9,4.9-8.8,10.3"/>
      <path class="cls-1" d="M828.8-320.8s-7.9,7-8.4,9.9"/>
      <path class="cls-1" d="M836.4-318.5s-5.7,5.5-6.5,9.9"/>
      <path class="cls-1" d="M841.6-315.2s-7,9.3-5.6,10.8"/>
      <path class="cls-1" d="M850.7-311.8s-5,9.1-3.7,10.6"/>
      <path class="cls-1" d="M861.2-309.8s-4.1,7.6-3.7,10.6"/>
      <path class="cls-1" d="M871.8-308s-1.6,9.4.7,11.4"/>
      <path class="cls-1" d="M884.1-304.9s.3,7.6-1.9,11.2"/>
      <path class="cls-1" d="M896.1-304s-2.8,8.9-1.9,11.5"/>
      <path class="cls-1" d="M906.7-302.2s-3.5,9.6-2,11.7"/>
      <path class="cls-1" d="M918.2-301.7s-1.4,12.1,0,13.7"/>
      <path class="cls-1" d="M930.6-301.5s1.4,8.8.9,11.7"/>
      <line class="cls-1" x1="943.7" y1="-303" x2="945.7" y2="-289.8"/>
      <path class="cls-1" d="M950.3-304.1s4.9,11.3,1.9,13.7"/>
      <line class="cls-1" x1="961" y1="-307.1" x2="967.9" y2="-296.3"/>
      <path class="cls-1" d="M971.9-311.2s1.5,10.4,3.9,11.4"/>
      <path class="cls-5" d="M749.8,392c15.7-.7,31.9-.6,47.5,1.3v.7c-11-.8-23.3-1.3-34.2-1.8-3.4-.3-6.6-.3-10.1-.1-.6,0-.8-.1-1.4-.5s-.7-.9.2-1c6.4-.5,15.6.3,22.2.4,7.4.5,14.7.2,22.1.9,0,0,.6,0,.5.6v.5c-7.4.3-14.8-.2-22.3-.4-6.6-.3-15.9.2-22.1-.9l.2-1c0-.5.9-.4,1.5-.3,3.4.6,6.5,1.1,9.9,1.1l11.4.9c7.7.5,15.1,1,22.9,1.5v.2s0,.2,0,.2c-11.7.9-23.8.4-35.8-.3-4-.2-8-.6-12-1-.6,0-.4-.8.1-.7h0l-.5-.3Z"/>
      <path class="cls-5" d="M755,403.8c-1.9-.6.5-2.7.6-3.7,1.3-2.8,3.4-6.6,4.6-10.2,1.2-2.1,3.4-13.2,7.7-9.9,1.2,1.5,1.1,2.2,1.4,3.6.9,6.8,1.6,13.3.2,19.9,0,.5-.6.4-.8-.1-.3-3.6-1.1-7.6-1.6-11.5-.4-2.6-.7-8-1.2-10.4l1.1.2c-1.7,1.8-3.4,6.3-4.3,8.7-1.5,3.6-3.5,7.1-5.5,10.3-.7.9-1.7,1.5-2.1,2.4v.5h0v.2Z"/>
      <path class="cls-5" d="M777.1,380.7c1.9,2.4,1.2,5,1.3,7.9-.3,5.1-.2,9.9-1.3,14.8,0,.2,0,.5-.6.4,0,0-.6,0-.5-.3-.6-3.4-.6-6.7-.6-10-.3-3.6,0-7.4.6-10.9l.2-1.2c0-.5.7-.7,1.2-.3h-.3s0-.3,0-.3Z"/>
      <path class="cls-5" d="M785.5,382.4c1,4.2.4,8,1.1,12.4.2,2.1.9,5,.7,6.5s.8,2.4-.4,2.5c-1.1-.2-1.2-1.5-1.7-2.1-.9-3.5-.6-7-1.2-10.4-.6-3.2-1.8-6.4.4-9.4,0-.5.9-.1,1.1.2h0v.2Z"/>
      <path class="cls-12" d="M958.8,30.3c.2,7,.4,15.6-6.1,17.2,0,.5-6.3,2.8-5.9,2.3,3.7-5,8.8-13.9,11-19.7,0-.5,1-.4.9.2h0Z"/>
      <path class="cls-2" d="M8.6,199.8"/>
      <path class="cls-9" d="M862.7,165.3c1.5-.3,4.2-.1,5.8,1,1.6.8,3,1.6,4.6,2.4,45.1,21.2,95.9,31.7,145.2,36.5,17.5,1.8,35.3,0,52.8,0,3.3,0,6,3.1,4.7,5.9-3.4,11.8-7.8,23.9-9.3,36.2-1.3,16.9-2.6,33.6-4.5,50.4-.9,5.5-1.2,11-2.8,16.7s0,0,0,0c-.2,1-.4,2.6-1.7,3.2-3.8,3.4-9.5,4-14.7,4.8s0,0,0,0c-6.3.6-12.5.6-18.5.7-18.6-.7-37.3-2.2-55.4-7.3-11.6-3.5-23.5-6.8-35.6-8.6-17.9-3-37.4-5.1-55.4-9.5-13-3.8-23.9-11.7-34.5-19.1-1-1-1.4-2.4-.9-3.6,4.1-8.4,2.9-17.4,4.4-26.3,0,0,0,0,0,0,.6-7.4,1.4-15.5,1.7-23s0,0,0,0c1.8-18.2,5.6-35.7,10.3-53.1s0,0,0,0c.4-2.3.9-5.2,3.7-6.3h0v-.5q0,0,0,0ZM867.4,174.1c.9.1,1.9-1,2.4-1.7.2-1.3,0-.5,0-.5l1.1,18c-2.5,15.1-11.1,24.3-13.1,39.5l-3.3,19.8s0,0,0,0c-.7,7.7-4.1,19.1-2.4,26.6l-.4-.8c-.4-.9.6-1.7,1.4-1.1,3.6,2.8,11.8,1.7,15.5,4.4,4.8,3.2,11.2,8.3,16.9,10.1,17.2,5.3,29.6,11.1,47.5,14.3,18.5,2.8,35.5,4.4,53.9,7.7,17.9,3,36.4,11,54.5,9,4.3-.6,1.1-2,4.5-4.4,1-.9,3.6-3,3.8-4.6,3.5-17.8,3.8-28.4,3.9-43.9s-.6-9.6-1.4-14.3c-1.4-8.6,5.9-21.3,6.5-26.5l5.4-15.9c.1-.8,1-1.1,1.6-.5l3.6,3.6c.5.5.3,1.4-.4,1.6-12.4,2.8-46.2,10.5-48.6,10.6s0,0,0,0c-51.2-2.6-95.6-23.7-142.5-40.8-2.5-1-11.6-8.7-14.4-9.7h0c.9.1,2.3.4,3.3-.5,0,0,.6,0,.6,0Z"/>
      <path class="cls-8" d="M804.4-378.4c1.5,2.7,3.1,6.1,5.3,8.4,7.2,8.7,17.6,15.5,28.6,20.6,16.7,7.6,35.3,9.3,53.3,12.6,18.8,2.6,38.5,5.3,57,2,14.2-2.7,34.3-5.8,36.3-20,.7,5.5-4.6,10.2-9,13.5-9.9,5.6-21.6,8.5-33.5,10.5-16.9,1.5-34.2-.6-51-3.4-18.3-3.6-36.8-6.1-53.7-14-14.2-6.9-28.2-17.3-33.1-30.4h0l-.4.2Z"/>
      <g class="cls-14">
        <g class="cls-14">
          <text class="cls-15" transform="translate(154.2 141.8) rotate(15.9) scale(1 1)"><tspan x="0" y="0">Paper</tspan></text>
        </g>
        <g class="cls-14">
          <text class="cls-15" transform="translate(270.3 333.4) rotate(15.9) scale(1 1)"><tspan x="0" y="0">Bottle</tspan></text>
        </g>
      </g>
    </g>
    <g id="_1-black-shade" data-name=" 1-black-shade">
      <path class="cls-7" d="M1010.4,32.2c-1.8,5-3.5,9.9-5.6,14.8-2,4.9-2.9,2.4-4.9,3.6-1.9,1.2-3.4,2.8-4.6,4.5l5.6,2.8c.3-.7.5-1.4.5-2.2.7-2.7-2.6-5.2-5-3.4-2.4,1.8-1.6,1.3-2.7,1.7s-1.9,1.2-1.4,1.4l3,3.2h0c-.3.7-1,1.2-1.6,2.1l-3.7-1.3c.2-1.3,0-2.7.2-3.9-3.4,2-6.4,3.8-9.8,5.8l4.1,4.4c.4-.4,1.2-.9,1.6-1.3,2.9-2.4-1-6.5-4.1-4.4-6.4,3.8-13.2,7-20.5,9.8-7.2,2.8-2.1,4.3.5,5.3,4,1.4,8.2,2.9,12.3,2.3,4.1-.7,6.2-3.9,9-6.9s8.4-3.4,12.5-4.9,8.3-4,12-6.9-1.1-6.8-4.1-4.4c-8.6,5.7-17,11.8-25.6,17.6-8.6,5.7-.5,4.6,2,5.3,5.5,1.2,11.1-.3,16.2-2s13.1-4.1,19.8-6.3l-2.9-5.3c-10.4,4-21.4,6.5-32.6,7.9l2.2,5.6c8-2.5,16.2-5.2,23.9-8.6,7.8-3.4,13.1-6.8,16.5-12.8s5-13.2,3.7-19.5c-1.3-6.3-7.4-10.1-14-9.3-6.6.9-3.1,2.9-1.6,4.5.7.5,1.1,1.2,1.1,2,.6,2.6,4,3,5.8,1.3,2.4-2.6,2.3-6.4-.3-9.2s-6.3-.7-5.2,2.1c2.1,6.6,1.7,13.7-1.8,19.4l5.6,2.8,2.6-7.3c1.2-3.3-4.8-5.7-6.1-2.2l-7.5,21.1c-1.8,3.4,3.8,5.1,5.6,2,2.6-4.9,5-9.7,7.6-14.6s2.4-4.2,3.8-6.4c1.4-2.2,3.5-5.7,5.6-5.7l-2.4-.8c-.5-1-.8-1.1-.5.6l-.4,1.2c.1,1.4.3,2.5.1,3.8-.2,2.3-.5,4.6-.8,7.2-.7,4.5-1.4,9.7-4.1,13.2-4.6,6.1-14.4,6.1-21.8,6.1s-4.1,4.9-.3,5.8c6.2,1.1,12,.5,17.7-1.2l-3.6-5c-3.4,2-8,2.2-12.1,2.9s-7.3,2.2-10.1,4.9.2,4.6,2.5,4.6c10.7,0,20.9-.8,31.5-2.1,10.6-1.3,9.4-1.2,13.4-3.2,4-2,6.8-4.8,9.4-7.9,5.9-7.3,9.3-16.2,9.7-25.6.4-9.5-.2-7.8-2.9-11.2-2.7-3.4-7.2-6.6-11.4-9.1-4.2-2.5-18.9-12.3-23.9-4.8l5.6,2.8c.7-1.9.4-3.6.2-5.5-.4-3.1-5-2.8-6.1-.6-1.1,2.3-1.7,4.7-2.6,7.3l5.8,2.1c.6-1.7.7-3.5,1.1-5.5.7-2.7-3.6-5.8-5.6-2.8-2,3-4,7.9-4.1,12.4-.1,4.5,3.2,4.3,5.3,2.7l7.3-7-5.3-2.7c-.3,3.4-1,6.9-1.9,10.3s.7,4,2.8,3.9,3.1-.2,4.8-1,1.6-1,2.4-1c1.2,0,2.2,1.3,2.8,2.1,2.9,3.7,4.3,7.9,5.2,12.3l3.3-3.4c-2.5-.6-4.5-1.6-6.6-3.2s-5.7.9-4.5,3.5,2.9,5.3,4.3,7.9l2-4.1-3.8.5c-2.8.3-3,3.5-1,5.3.6.8.5,1.2-.4,1.2-3.6,0-4.1,3.9-1.1,5.5,3,1.6,6.4,3.1,9.4,4.7l-1.2-5c-2.6,2.3-5.7,3.3-9.2,3.4-3.6,0-2.7,1.7-2.3,3.2s-.5,1.4-1.3,1.9l4.1,4.4c6.3-6,12.9-12,19.2-18,6.3-6,8.5-10.6,4.2-16.9-4.3-6.3-4.6-2.2-5.7.1-2.5,5.3-4.9,10.5-7.1,15.9l5.8,2.1c2.2-6.2,0-12.8-2.5-18.8-2.6-6-6.7-12.2-11.3-17.6l-3.4,4.4c4.2,1.5,11.6,4.1,12.3,8.9.7,4.8-.3,6.6,3.5,9.5,3.7,2.9,4,.4,4.6-1.3s1-4.5,1.2-6.8l-4.9,2c5,2.6,10.1,5.2,14.9,8.3,4.9,3.1,4,3,3.9,5.7s-.5,4.6-1.2,6.8c-2.9,8.9-12.9,9.3-21.6,9.6l2.2,5.6c9.3-4.4,19.2-9.5,24.1-18.4,5-8.9-.5-5.3-3.4-4.7-5.5,1.2-9.7,3.8-13.2,7.8s2.8,6.3,5.3,3.5c2.5-2.8,5.2-7,6.6-11,1.4-4,2.2-6.2-.4-8.9-2.6-2.8-6.9-6.5-10.2-9.8-3.3-3.3-7.8-7.3-11.8-11.2l-3.4,4.4c8.7,3.1,16.3,8.5,23.9,14.1,7.5,5.6,8.1,5,7,9.7-1.1,4.7-2,8.1-4.1,11.6-8.9,15-31.5,8-46.4,4.8l1.3,5.5c3.4-1.2,7.2-1.7,11-1.7l-2-5.3c-3.1,2.1-6.8,3.2-10.8,3.6-4,.4-2.9,5.6.6,5.8h6.2c0,0-1.3-5.5-1.3-5.5l-19.7,5.8,3.6,5,1.9-1.2c3.4-2-1-6.5-4.1-4.4l-1.9,1.2c-3,1.9.6,5.8,3.6,5l19.7-5.8c2.7-.9,1.9-5.4-1.3-5.5h-6.2c0,0,.6,5.7.6,5.7,5.2-.3,9.6-1.9,13.6-4.8s.9-5-2-5.3c-4.8.2-9.5.6-14.2,2.2-4.7,1.5-1.4,4.8,1.3,5.5,10.8,2.3,21.6,5.5,32.4,4.3s17-5.9,20.8-14c3.7-8,3.7-8.8,4.1-13.2.4-4.4-2.6-7.9-6.6-10.9-8.9-6.9-18.1-13.6-28.9-17.5s-5.6,2.3-3.4,4.4c5.8,5.5,11.8,11.2,17.6,16.7,5.8,5.5,3,2.4,4,3.8,1,1.4,0,2.4-.5,3.8-1.3,3.6-3.3,6.8-5.8,9.7l5.3,3.5c2.5-2.8,5.5-4.7,9.2-5.8l-3.4-4.7c-4.4,8.3-13.2,12.7-21.7,16.6-8.5,3.9-1.4,5.6,2.2,5.6,11.7-.4,23.3-2.6,26.6-14.3,3.3-11.7,2.3-10.7-1.8-15.1-4.1-4.4-5.5-3.8-8.1-5.6-2.7-1.7-7-3.8-10.5-5.6-3.5-1.8-4.7-.3-4.9,2-.2,2.3-.4,3.6-1,5.3l4.6-1.3c-1.2-.9-.5-4.4-.6-5.8-.2-1.9-1.1-3.6-2.4-5.1-3.4-3.9-9.3-6.5-14.1-8.2-4.8-1.7-5.2,2.1-3.4,4.4,3.8,4.3,7.1,9.2,9.5,14.3s4.6,11.3,3,16.6c-1.6,5.3,4.6,5.4,5.8,2.1,2.2-5.4,4.7-10.6,7.1-15.9h-5.7c3.9,5.8-3.8,10.8-7.1,14.1s-9.9,9.3-14.8,13.9c-4.9,4.6,1,6.5,4.1,4.4,3.1-2.1,3.6-4.3,3.2-7.4l-2.3,3.2c4.6-.2,8.7-2,12-4.5s1.1-3.9-1.2-5c-3-1.6-6.4-3.1-9.4-4.7l-1.1,5.5c7.1.1,9.7-7.2,4.1-11.6l-1,5.3,3.8-.5c1.9-.4,2.9-2.4,2-4.1l-4.3-7.9-4.5,3.5c2.8,2.3,6.2,3.5,9.8,4.3s3.6-1.7,3.3-3.4c-.8-5.3-3.1-11.3-7.2-15.7-4.1-4.4-3.8-3.5-6.7-3.7-2.9-.2-4.6,2.1-7,2l2.8,3.9c1.4-3.8,1.8-7.6,2.1-11.8.3-4.2-3.5-4.4-5.3-2.7l-7.3,7,5.3,2.7c0-3.5,1.1-6.5,3.1-9.6l-5.6-2.8c-.6,1.7-.7,3.5-1.1,5.5-.7,3.5,5.2,5.6,5.8,2.1s1.4-4.8,2.6-7.3l-6.1-.6c0,.8,0,1.6,0,2.7-.7,2.9,3.7,5.6,5.6,2.8s8.7,2.3,10.5,3.2c4.2,2.3,8.9,5,12.6,8.2,3.6,3.2,3.8,7.8,3.1,12.3-.7,4.5-2.1,9.4-4.3,13.7-2.1,4.3-4.8,7.6-8.2,10.4s-8.2,3.8-12.9,4.5c-10.3,1.4-20.8,2.5-31.5,2.1l2.5,4.6c2.4-2.6,7-2.9,10.5-3.5,3.5-.6,7.3-1.4,10.5-3.5,3.1-2.1-.5-6.1-3.6-5-4.7,1.5-9.5,1.7-14.5.7l-.3,5.8c8.1,0,16.7-.2,23.4-4.7,6.7-4.6,8.6-15.9,9.7-24.6,1-8.7,2.2-9.6-1-12.1-3.3-2.5-7.6,1.3-9.6,3.5-6.6,7.5-10.5,17.1-15.2,25.8l5.8,2.1,7.5-21.1-5.6-2-2.6,7.3c-1,2.8,3.9,5.7,5.8,2.9,4.4-7.3,5.5-15.4,2.6-23.9l-5.2,2.1c.9.9.4,1.5-.2,2.3l5.8,1.3c-.3-1.7-1.2-3.4-2.5-4.6l-1.6,4.5c6.9-1,7.4,6.1,6.5,10.3-.9,4.2-2.8,11.3-7.4,15-4.6,3.7-9.7,5.6-14.9,7.5s-12.2,4.2-18.3,6.3c-6.1,2.1-1.2,6,2.2,5.6,11.8-1.4,23.3-4.3,34.3-8.3,11-4.1.8-6.4-2.9-5.3-5.8,2-11.8,3.8-17.5,5.5-5.7,1.7-9.8,3.2-15.4,2.3l2,5.3c8.6-5.7,17-11.8,25.6-17.6l-4.1-4.4c-3,2.7-6.4,4.7-10.5,6.1s-7.4,1.6-10.7,3.4-4.4,4.8-7.3,7-7.5.3-11-1l.5,5.3c7.6-2.9,14.8-6.5,22-10.6l-4.1-4.4c-.4.4-1.2.9-1.6,1.3-2.9,2.4,1,6.5,4.1,4.4s6.4-3.8,9.8-5.8c3.4-2,1-2.8.2-3.9h0c-.8-1.1-2.7-1.5-3.8-1.1h0c-.9.8-1.7,1.5-1.8,2.6h0c0,1.8,1,3,2.9,3.5,3.1.6,6.4-2.8,8.4-4.5l-5-3.4c-.3.7-.5,1.4-.5,2.2-.7,2.7,3.9,5.9,5.6,2.8,1.7-3.1,7.7-4.2,9.6-8.6,1.9-4.4,3.8-10.7,5.9-15.8s-4.6-5.4-5.8-2.1h0l-.6,1.7h-.3Z"/>
    </g>
  </g>
  <g id="Layer_5" data-name="Layer 5">
    <path class="cls-8" d="M512.3,461.6c-2.3,7.6-5.3,15.1-9.2,22.2-2.3,3.1-4.8,6.1-7.5,9-2.5,1.9-5,3.7-7.7,5.4-2.3,1-4.6,2-7.1,2.9-6.1,2.3-11.3,5.8-15.5,10.2-3.8,1.4-7.3,3.1-10.6,5.3-12.3,1.4-24.7,1.4-37.1,2.1-18.8,1-37.4,3.2-56.2,4.1-44,0-86.8-10.3-130.5-14.5-22.6-2.2-45.3-2-67.9-3.9-21.4-1.8-42.6-4.6-63.6-8.5-15.1-3.3-30-7.3-44.9-11.3-12.8-3.5-25.5-7.3-37.6-12.3-4.4-2.3-8.7-4.8-12.7-7.6-3.3-2.9-6.5-6-9.8-8.9-3.5-6.2-8.3-12.1-14-16.9.4-22.6,2.8-45.2,5.5-67.6,2.3-18.3,4.6-36.7,5.2-55.2,0-.9,0-1.8,0-2.6.4-3.2.9-6.5,1.3-9.7,3-21.2,8.8-41.9,12.3-63,6.2-12.2,13.4-24.1,20.3-35.8,11.5-19.2,23.5-38.2,35.4-57.3,11.1-16,24.3-32.2,34.8-49.1,3.5-2,6.8-4.2,10-6.5,14.5-10.4,25.4-23.4,37.7-35.4,8.5-7.3,17.3-14.6,23.7-23.2,10.6-14.3,18-30.4,17.7-47.7,0-.7,0-1.4,0-2.1,3.1-3,6.2-6,9.3-9,2.6-2.2,5.4-4.2,8.3-6.1,3.4-1.5,6.9-2.8,10.5-4,7.4-1.5,15-2.5,22.6-2.9,17.6,0,35.3,2,52.8,3.9,17.9,1.8,35.6,4.2,53.2,7.5,14.9,3.3,29.3,7.6,43.9,11.8,12.3,3.5,24.8,6.6,36.6,11.2.6.3,1.2.6,1.8,1,2.6,5.1,4.3,10.5,6.7,15.6,1.8,4.1,5.3,8,9.6,11.4-.5,1.8-.9,3.6-1.4,5.4-4.4,17.7-1.9,35.6,4.6,52.7,7.4,19.6,19.7,36.2,33,53.4,4.4,5.8,9,11.6,14.4,16.7,2.2,2.2,4.6,4.2,7,6.3,0,.7.2,1.5.3,2.2,2.1,12,6.7,23.5,10.6,35.2,4.1,12.1,6,24.2,7.1,36.7,1.9,23.7,7.5,47,9.4,70.6,1,30.7-2.7,61-4.9,91.6-1.6,22.3-2.6,44.8-7.7,66.7Z"/>
    <path class="cls-5" d="M359,329.3c-48.3,4.2-100.1-8.3-145.4-14.9-15.4-1.6-31.6.2-46.1-3.1-2-.7,2.2-10.9,4.2-10.2h0l-1.1-2.4c63.7-2.6,126.9.6,183.2,15.2l-2.5,5c-40.5-6.9-87.6-12.1-129-17.3-12.6-2.6-25-3.2-39.3-2.4-2-.7-2.9-1.1-4.1-3.5-1.1-2.4-.8-13,3-13.6,26.5-2.2,60.7,11,86.6,12.5,27.9,4.2,57.9,3.2,85,9.1,0,0,1.5.6-.2,4l-1.7,3.4c-29.5,1.2-57.4-3.1-86.2-5.6-25-3.2-63-1.2-84.5-9l3.3-6.7c1.7-3.4,4.6-2.3,6.6-1.6,11.7,4.3,22.5,8.2,35.9,9.1l42.5,7.6c28.9,4.6,56.9,8.8,85.8,13.4"/>
    <path class="cls-5" d="M133.5,355.6c17.9-22.1,48.5-32,64-60.9,16.3-16,43.3-106.4,104.6-73.4,17,13.9,15.5,19.9,20.7,31.6,14.1,57.9,29.2,83.8,26.8,140.8-1,4.1-33.1,5.4-36,.6-4.6-30.6-11.9-41.4-19.9-74.8-6.6-22.5-11.5-68-18.6-88.5l15.6,3c-23.6,12.5-45.1,48.7-58,67.5-19.4,28.1-36.4,56.1-36.4,56.1,6-5.3-11.7,16-17.4,22.3l-27-9.9s-20.3-6.2-18.3-14.3"/>
  </g>
  <g id="Layer_4" data-name="Layer 4">
    <g>
      <path class="cls-7" d="M377.8,46.6s-3.3,6.7-41.2,6.9c-11.4,0-26.1-.4-44.9-2-29.2-2.3-48.8-5.4-61.9-8.5-22.8-5.2-25.9-10.2-26-10.4s0,0,0,0c.2-.3,5.6-10.4,83.6-5.7,79.2,4.8,90.5,19.7,90.5,19.7h0Z"/>
      <path class="cls-6" d="M286.2,54c-23.4-2-42.7-4.8-57.3-8.1-23.1-5.3-27.5-10.6-28.3-12.1-.4-.7-.4-1.5-.1-2.2.6-1.5,3.4-4.4,14.6-6.5,14.9-2.7,39.3-3.1,72.5-1.1,71.4,4.3,88.9,16.8,92.4,20.3.9.6,1.3,1.5,1.2,2.5h0c0,.8-.4,1.4-1,1.9-2.4,2.6-11.3,7.5-43.6,7.7-13,0-28.2-.6-45.3-2-1.8-.1-3.5-.3-5.2-.4ZM209,32.8s0,0,0,0c2.8,1.7,9,4.5,21.7,7.4,15.3,3.5,35.9,6.4,61.3,8.4,16.8,1.4,31.8,2,44.6,1.9,22.4-.2,32-2.6,35.9-4.2s0,0,0,0c-2.2-1.4-6.2-3.4-12.9-5.6-16.2-5.2-32.4-8.5-72.3-10.9-55-3.3-72.7.7-78.2,3Z"/>
    </g>
    <path class="cls-7" d="M257.7,93c-40.6-5.3-62.9-16.5-65.1-20.2s0,0,0,0l7.3-41.3s0,0,0,0c2,5,18.4,10.3,24.4,12s2.7.7,4,1c2.8.6,10.9,2.2,13.7,2.8s1.1.2,1.6.3c4.1.6,18.1,2.5,35.8,4,5.5.5,18.8,1.6,20,1.7,8.3.7,19.6,1.3,27.8,1.4,2.6,0,10.1.4,13.4.2s17.2-.5,27.1-2.4,7.8-2.2,10.5-3.9,2.6-3.4,2.7-4.2,0,0,0,0c.1,1,.6,4.1.6,4.5l-1.5,40s0,0,0,0c-4,3.2-27.1,4.2-51.3,7.1,0,0-23.5,2.6-36.1,1.5h-.6c0,0-34.2-4.4-34.2-4.4Z"/>
    <path class="cls-6" d="M306.9,132.3c-13.5-1.2-27.6-3.5-41.6-5.8-8.7-1.4-17.6-2.9-26.1-4-37.1-4.9-55.3-12.6-56.1-12.9-1.9-.8-4.9-1-4.5-2.8l11.3-30.1c0-.1,0-.3.1-.4.6-1.5,1.5-.6,2.9.4,3.1,2.2,1.1.5,5.2,3.3,2.2,1.4,9.4,2.9,12.9,4.9,7.1,4,13,3.3,21.3,5.9,6.7,2.1,14.7,3.3,25.4,4.8,2.7.4,5.2.7,7.6,1,22.5,3.1,34.8,4.8,58.9,2.1.8,0,5.7.1,8.4-.5,1.9-.4,8.2-.8,10.2-1,18.1-2.3,33.8-4.6,34-4.7,1.3-.3,3.5-1.6,3.4-.7s5.4,17.9,5.4,17.9c.2.9.4,1.7.7,2.6.4,1.3,0,2.8-1.2,3.9l-.4.3c-.5.4-1.1.7-1.7.9-3.3,1.7-12.6,5.9-34.4,12.4-12.1,3.6-26.6,3.8-42,2.5ZM189,104.7s25,6.2,51.6,9.7c8.6,1.1,17.7,2.6,26.4,4.1,28.7,4.7,58.3,9.7,78.7,3.6,18-5.4,27-9.1,30.9-10.9s0,0,0,0l-1.8-15.1s0,0,0,0c-8,1.8-23.4,5.1-34.7,7.5-1.9.4-3.9.8-5.8,1.2-4.5,1-7.1,1.5-8.4,1.7-25.5,2.9-39.1,1-61.7-2.1-2.4-.3-4.9-.7-7.6-1-11.2-1.5-19.7-2.8-27.2-5.2-9-2.9-17.2-6.4-24.9-10.8-3.5-2-6.5-3.8-6.5-3.8l-8.9,21.2Z"/>
    <path class="cls-10" d="M223.1,483.3c-56.3-4.9-100.6-9.4-101.4-9.5l-14.3-2.2s-11.3.9-32-3.7c-24.2-5.4-30.4-32.3-30.5-51.2-.2-51,12.9-124.7,25-178.8,1.4-6.2,3-12.3,6.3-17.9,6.4-10.6,20-28.3,20.3-28.8,7.9-13.3,21.6-27,42.4-44.6,11.4-9.7,25-18.6,36.8-31.1,4.3-4.6,3.2,1.2,8.8,1.7l3.2,1.2s41,11.2,66.7,14.3c15.4,1.9,45.3,10.1,71.9,8.1,29.3-2.2,41.6-10.8,48.3-13s9.8-4.1,12.7-5.7,1.8-.2,2.2.5c1.1,1.7,65.9,72.4,68.5,104.8,1.3,16.7-7.2,56.6-8.7,112.3l-.5,19.8c.8,36.7-3.2,103.3-15.3,116.3-11.2,12-31.7,15.9-67.8,17-37.7,1.2-97.5-5.8-142.6-9.7ZM81.2,454.1s41.5,9.3,54.8,10.4c11.5,1.4,154,27.9,233.9,20.1,52-5.1,51.9-15.5,56.1-43.4h0c.5-2.7-.6-31.4.4-69.9l-1.8-25.9c4.4-53,11.4-99,13.1-115.1,1.1-10.4-2.8-22.4-20.4-40.8-9.4-9.9-30.4-41.9-36.8-44.1s-18.6,9.3-54,7.8c-28.2-1.2-58.7-3.8-75.6-5.9-23.2-2.9-71.4-15.5-71.4-15.4,2.9-1.5-35.3,38.9-37.9,41.5-10.3,10.8-30,19.3-34,25.7-.5.9-2.1,2.7-4.2,4.9-8,8.8-13.3,19.2-15.1,30.2v.3c0,0-7.8,64.1-6.4,93.8,1.6,33.1-12.7,64.1-12.6,88,.1,35.2,5.9,30.6,11.9,37.7Z"/>
    <path class="cls-7" d="M195.2,109c1.6-5.4,7.1-27.1,9.5-26.7s3.5,2.7,2.8,5l-6.8,22.3c-.6,1.9-6.3,1.7-5.6-.6Z"/>
    <path class="cls-6" d="M215.6,115.5c-2.4-.4-4.1-2.4-3.8-4.6l5.2-18.1c.2-2.1.1-3.6,2.6-3.6s3.7,1.8,3.5,4.1l-1.9,18.6c-.2,2.3-2.8,4-5.5,3.5Z"/>
    <path class="cls-6" d="M229.8,117.6c-.3,0-.7,0-1-.2-2.5-.7-3.8-3.1-3-5.2l5.3-14.8c.7-2,3.1-3.4,5.5-2.9s.7,2.6,0,4.8l-1.8,15.5c-.7,1.8-2.7,3-4.9,2.8Z"/>
    <path class="cls-6" d="M248.2,120.3c-2.4-.4-4.1-2.4-3.8-4.6l5.5-16.3c.2-2.1-1.6-3.8.9-3.8s5,2.1,4.7,4.4l-1.7,16.6c-.2,2.3-2.8,4-5.5,3.5Z"/>
    <path class="cls-6" d="M260.9,124.1c-2.4-.4.2-3.4.4-5.5l-2.3-17.7c.2-2.1,2.2-3.8,4.7-3.8s.8,1.3.6,3.7l2.2,19.8c-.2,2.3-2.8,4-5.5,3.5Z"/>
    <path class="cls-6" d="M278.4,125.6c-2.4-.4-4.1-2.4-3.8-4.6l-2.7-17.8c.2-2.1,6.7-3,9.2-3s3.2,2.7,2.9,5v16.8c-.2,2.3-2.8,4-5.5,3.5Z"/>
    <path class="cls-6" d="M295.1,127.1c-2.3-.2-4.1-1.8-4.3-3.8l.9-17.3c-.2-2.1-.8-4.2,1.6-4.5s5.3,1.4,5.5,3.8l1.4,17.7c.2,2.2-1.8,4.1-4.4,4.3-.3,0-.5,0-.8,0Z"/>
    <path class="cls-6" d="M311.3,128.4c-2.4-.4-4.1-2.4-3.8-4.6l-1.1-18.6c.2-2.1,5.3-4.2,7.8-4.1s1.4,1.6,1.2,4l1.5,19.8c-.2,2.3-2.8,4-5.5,3.5Z"/>
    <path class="cls-6" d="M329.9,127.4c-2.1-.2-3.9-1.5-4.2-3.4l-1.3-20c-.4-2.1-1.8-4.8.6-5.3s5.4,1,5.9,3.3l4.1,20.6c.4,1.9-.7,3.8-2.8,4.5s-1.5.3-2.3.3Z"/>
    <path class="cls-6" d="M346.4,128.8c-1.9-.2-6,.2-6.6-1.5l-1-23c-.7-2.2-3-5-.5-5.6,2.5-.6,5.1.7,5.8,2.9l7.1,23.8c.7,2.2,0,2.1-2.5,2.6-.6.1-1.8.8-2.3.8Z"/>
    <path class="cls-6" d="M356.9,123.6c-2.1-.2-3.9-1.6-4.2-3.4l.2-21.4c-.4-2.2,2-3.9,2.4-1.7l6.7,21.9c.4,2.2-1.4,4.2-3.9,4.5-.4,0-.8,0-1.1,0Z"/>
    <path class="cls-6" d="M370.2,120.6c-2-.2-3.7-1.4-4.2-3.2l-3.9-21.6c-.5-2.1,1.1,0,3.4-.7s4.9-.9,5.4,1.4l1.3,20.1c.5,1.9,2.4,2.8.4,3.6s-1.7.4-2.5.4Z"/>
    <path class="cls-13" d="M120.9,220.2c1.6-.4,4.5-.5,6.3.3,1.9.6,3.4,1.1,5.3,1.7,51.4,14.5,107.4,18.8,161,17.9,19-.2,37.9-3.7,56.7-5.5,3.5-.3,6.9,2.2,5.8,4.8-2.1,11-5.1,22.4-4.9,33.7.9,15.4,1.9,30.6,2.2,46-.2,5,.2,10.1-.6,15.3,0,0,0,0,0,0,0,1-.1,2.4-1.4,3-3.6,3.4-9.7,4.6-15.1,5.8s0,0,0,0c-6.7,1.2-13.4,1.8-19.7,2.5-20,1.3-40.4,1.9-60.5-.9-12.9-2-26.2-3.8-39.5-4.1-19.6-.8-40.9-.8-60.8-2.8-14.5-2.1-27.3-8.1-39.7-13.7-1.2-.8-1.8-2-1.5-3.2,3.2-8,.7-16.1,1-24.2,0,0,0,0,0,0-.3-6.7-.7-14.2-1.3-20.9s0,0,0,0c-.6-16.6,1.1-32.9,3.7-49.1,0,0,0,0,0,0,0-2.2.2-4.8,3.1-6.1h0v-.5s0,0,0,0ZM349.7,241.8l-4.4-2.9c-.7-.4-1.6,0-1.6.6l-1.5,6.3c2.4-.9,4.8-1.8,7.2-2.5.7-.2.9-1.1.3-1.5ZM129.6,225.9c-.3.7-1.4,1.9-2.3,1.8h-.6c-.5.4-1.1.6-1.8.7-.6,0-1.3,0-1.8,0,1.5.3,4.7,1.8,8,3.4l-1.5-6ZM124.7,320.5s0-.3,0-.9c-.2.2-.2.6,0,.9Z"/>
    <path class="cls-11" d="M338,329.2c0,1.4-2.3,3.6-3.3,4.5-3.1,2.5.3,3.4-3.9,4.4-17.9,3.8-37.4-1.5-55.7-2.3-18.9-1-36.1-.7-55-1.2-18.3-1-31.5-4.9-49.4-7.8-5.9-1-13-4.9-18.2-7.3-4.1-2-12.1-.1-16.1-2.3-.5-.3-1.1,0-1.3.3,0-3.5-.3-16.6-.6-22.6l.8-18.1c0-13.8,7.4-23,8-36.8l-2.1-9.6c3.4,1.7,6.8,3.5,8.2,3.9,49.2,10.4,96.4,24.6,147.9,21.6,0,0,0,0,0,0,2.4-.4,8-.9,10.4-1.2,10.6-1.2,20.4-6.8,30.2-10.9l-2,8.6c0,4.7-5.6,16.9-3.1,24.5,1.4,4.2,2.6,8.4,3.2,12.7,1.9,13.9,2.9,23.4,1.7,39.7Z"/>
  </g>
</svg>